PathFileType	4	(X/Y/Z)	Patient4_TMGait_0pt8_01_left_23.trc.trc
DataRate	CameraRate	NumFrames	NumMarkers	Units	OrigDataRate	OrigDataStartFrame	OrigNumFrames
89.171974522293	89.171974522293	6	33	mm	89.171974522293	36	       141
Frame#	Time	Sacral			L.Shoulder			Chest			R.Shoulder			Neck			R.ASIS			L.ASIS			R.Thigh.Superior			R.Thigh.Lateral			R.Thigh.Inferior			R.Patella			L.Thigh.Superior			L.Thigh.Lateral			L.Thigh.Inferior			L.Patella			L.Shank.Superior			L.Shank.Lateral			L.Shank.Inferior			R.Shank.Superior			R.Shank.Lateral			R.Shank.Inferior			R.Heel			R.Midfoot.Superior			R.Midfoot.Lateral			R.Toe			L.Heel			L.Midfoot.Lateral			L.Midfoot.Superior			L.Toe			L.Elbow			L.Wrist			R.Elbow			R.Wrist			
		X1	Y1	Z1	X2	Y2	Z2	X3	Y3	Z3	X4	Y4	Z4	X5	Y5	Z5	X6	Y6	Z6	X7	Y7	Z7	X8	Y8	Z8	X9	Y9	Z9	X10	Y10	Z10	X11	Y11	Z11	X12	Y12	Z12	X13	Y13	Z13	X14	Y14	Z14	X15	Y15	Z15	X16	Y16	Z16	X17	Y17	Z17	X18	Y18	Z18	X19	Y19	Z19	X20	Y20	Z20	X21	Y21	Z21	X22	Y22	Z22	X23	Y23	Z23	X24	Y24	Z24	X25	Y25	Z25	X26	Y26	Z26	X27	Y27	Z27	X28	Y28	Z28	X29	Y29	Z29	X30	Y30	Z30	X31	Y31	Z31	X32	Y32	Z32	X33	Y33	Z33	

36	25.462500000000	894.214010031241	1000.820916512625	470.149507199458	1050.356090970338	1424.021173189174	286.971928899253	1165.588876677834	1359.961736087416	442.181409386611	1091.318170453320	1434.672645703239	620.111426778597	1038.894300701302	1485.894791644055	443.768228208077	1117.923261856683	927.375968878846	581.340654183804	1105.145815602944	954.600233137468	309.476611376748	1125.239858246733	713.857451106248	559.282685177836	1024.070293763507	616.286677233550	618.490774701085	1097.183035294968	547.847737140010	546.852496351016	1073.001290188117	443.470947520927	562.156035812548	1176.990618126324	764.903619121572	343.697285298039	1111.602141186172	636.399280349129	277.623954272522	1208.392978416252	573.005911706552	341.791231095863	1220.236559302120	503.056840173716	348.651384246522	1201.532685811395	427.778442272975	341.367057101500	1125.247833031700	302.566506822351	293.457175223556	1194.139524849607	199.763412635907	363.701051688773	995.845168689783	380.707888622865	563.792995180310	874.235239404060	336.469966897213	618.770279484287	865.305805574436	228.503877279545	564.069699672257	667.006367707765	143.007313855079	522.690814560770	838.730859557219	116.366733659306	576.003562190303	729.770237462468	97.010851252250	601.085178722974	917.955317433473	32.454570292959	609.399851925582	1084.463071515131	38.282363168597	412.429665902243	1155.547175742115	36.296713201496	328.512635640068	1237.579899935443	99.515822421702	352.461483844263	1365.698264286190	51.932242273034	320.797991418865	933.660764528726	1088.057624461547	199.699428585643	881.866007811216	835.811344838247	209.748318913439	1220.699331182194	1117.756362998322	738.803244377066	1452.942845423784	1186.527382325186	673.660466380812	
37	25.473714285714	893.689947997895	1002.025851941840	467.588360899381	1051.372971178475	1425.546244078219	285.174866079869	1165.377509293968	1361.441491361002	441.251290974538	1089.724780234667	1436.284285325801	618.515174636211	1038.617946957748	1487.375604670237	441.821507337726	1117.061437096466	928.790586268842	579.610644861094	1105.403897956742	956.260043875060	307.854452391286	1130.580976193511	716.515485243071	558.022723046975	1032.816226983428	616.351947975873	617.703048599102	1108.566270912317	549.370838814853	546.608443767605	1085.874269956859	443.139099346719	563.053111085441	1176.027056564139	764.453083884618	339.767920836792	1107.299023396916	636.470687810816	276.251777725867	1203.950985754466	572.096657107792	339.488225785400	1214.984703265277	502.495019028744	347.287762245761	1195.759290814965	427.314122825802	340.273913041070	1118.307968169216	302.686323299963	292.736641106773	1186.202679719807	199.470962391791	363.239798923187	1006.232784272365	381.427214048816	563.761121672737	882.532032888733	342.165308622955	618.195616138111	869.757895781646	234.604842017856	563.938432684512	668.737206371939	159.638439985977	521.653757455826	838.352701273801	122.188796252709	576.111110333879	728.054670098059	109.464111873426	600.209060254752	911.081519272698	31.896375999612	609.283862922876	1075.442308409533	38.210168183376	412.298807579467	1146.512210813711	36.224979154522	328.359728625218	1228.471663770210	99.535561946601	352.284360124975	1356.607584799065	52.199382419782	320.614829299535	941.905872466612	1086.971442462839	195.335471262744	897.949055926082	833.155589544225	203.999280241361	1209.506755928787	1115.126041354522	738.562655559502	1445.333863111065	1172.327626079724	674.658166638001	
38	25.484928571429	892.965856982908	1003.113006381811	465.109947121403	1052.291735668114	1427.021209549766	283.501969040740	1165.029467925440	1362.845977826048	440.435384052001	1087.933987791532	1437.695590607821	617.061362066591	1038.245216027023	1488.745465166165	440.020116654953	1116.079924341613	930.140964464807	578.039563806387	1105.486372328703	957.783459400989	306.341286882670	1136.136528895814	719.465867446775	556.979547295019	1041.963543306994	616.715231357569	617.047813027211	1120.290322173415	551.391553899408	546.380809044172	1099.305393830134	443.432687264855	563.680470376459	1174.665615866784	763.723655504705	336.047562829836	1102.766672266263	636.469093991640	274.997404788894	1199.148949489960	571.088858631626	337.485069694964	1209.323789618810	501.826333761609	346.095284222359	1189.628640844795	426.789509877727	339.277850475925	1111.100463885494	302.698892692086	292.141246219378	1178.108941376948	199.127175697409	362.849619784185	1017.418819287589	382.544332825803	563.532411342683	891.907866183214	348.143328771360	617.556994988536	875.289230470256	241.217720146263	563.637731491388	672.085660361858	176.813438758381	520.577279105821	839.137103521159	128.886943541605	575.987962620993	727.860243528067	122.703703066303	599.248979770887	905.338427119844	31.932921843559	608.924366817869	1066.351429894037	38.118564096768	412.217831767957	1137.400414514161	36.112535248048	328.260776288943	1219.340326488267	99.457058951475	352.181939580732	1347.482930218626	52.266686475020	320.488737254516	950.418354854446	1085.975832906194	190.894912122032	915.179812067880	830.685326266690	198.240606709552	1197.752894165026	1112.527807860351	738.273643877390	1436.907051678459	1157.008844096319	675.934299906147	
39	25.496142857143	892.049760093131	1004.051770990212	462.741184842100	1053.112844887826	1428.396179888189	281.963633036976	1164.558084489501	1364.135056560390	439.743152408978	1085.986030122405	1438.871518094587	615.773979212049	1037.791251757827	1489.984533173847	438.374155465986	1114.992213035052	931.396500165166	576.628496567838	1105.381744698725	959.148901582060	304.942055821811	1141.771587723678	722.704603657564	556.066457492354	1051.385644558753	617.434939002267	616.476140256254	1132.149020638437	553.954752168679	546.076388031019	1113.114333233434	444.398957504138	563.973398941351	1172.915686569110	762.807545958413	332.731750611224	1098.209308037898	636.468898163491	273.829144445690	1194.108061523077	570.053792622126	335.840315848467	1203.370791534343	501.085570861144	345.087027030658	1183.255330752945	426.228762303572	338.398631121242	1103.764536449982	302.637150179769	291.616650526843	1169.931346586976	198.751340557600	362.529549955199	1029.238870504071	384.099680963166	563.096395088613	902.206808996350	354.341328950524	616.850373155448	881.851967064994	248.227546018769	563.178140626265	676.993686442287	194.052487041104	519.551106048941	841.171073899654	136.298938371560	575.609518006903	729.292666738890	136.326939003400	598.251296852045	901.043765992809	32.784433703501	608.240999911890	1057.224574541659	38.025112708266	412.163280157989	1128.250548111969	35.981327751027	328.196651591041	1210.219578398880	99.301885703302	352.139625152004	1338.354370976025	52.168782033581	320.413162644839	959.193746357676	1085.048599500638	186.421572588946	933.470412034036	828.469855893802	192.519412306552	1185.511688422676	1109.938393469424	737.911406227935	1427.559202344005	1140.639449033247	677.500058663081	
40	25.507357142857	890.965596210487	1004.832832961765	460.502962805336	1053.833069633456	1429.642256769111	280.571048461356	1163.977788759226	1365.284781222659	439.180599639113	1083.928709118760	1439.799717865049	614.670177838250	1037.271479638122	1491.089015171652	436.893990827594	1113.813529045726	932.543546168415	575.364511544586	1105.086275154969	960.354790675057	303.648796476995	1147.352334257959	726.226992911889	555.178671220014	1060.962022299914	618.560662178482	615.940632197720	1143.957776414371	557.091106618615	545.618961237817	1127.136649016367	446.068467989708	563.912336315644	1170.812929172352	761.802957513087	329.953876515885	1093.768593905474	636.520040198404	272.722810418662	1188.930734689106	569.044003824350	334.565383788448	1197.230861500030	500.303474521038	344.266832486013	1176.738679615866	425.653738714438	337.646493175986	1096.407001920759	302.533106336668	291.125326210801	1161.726197541694	198.361073009788	362.276092301618	1041.540512614126	386.124748124855	562.474117104298	913.270413461585	360.685846610130	616.089721211693	889.401074048914	255.489662507135	562.594262239558	683.361931915742	210.852085446217	518.664251049550	844.536911793584	144.190053929278	574.971602280858	732.415891398000	149.883258778922	597.269249458376	898.515169192825	34.603049300282	607.185033746482	1048.089685913441	37.942487348319	412.116140321148	1119.093378046322	35.849671352646	328.150816501711	1201.130045734877	99.095372159623	352.140359800552	1329.241972049647	51.951916984680	320.375772431366	968.240556693324	1084.184825588448	181.960543848716	952.731998042264	826.594104889622	186.880581185402	1172.849569587994	1107.347901834076	737.451152491068	1417.183106503568	1123.293926595756	679.357159796746	
41	25.518571428571	889.752221475383	1005.465546588669	458.407958104011	1054.445925723789	1430.750666552691	279.334587351221	1163.302644836440	1366.287564970941	438.749701110711	1081.809206933000	1440.487875160742	613.758051062335	1036.699411750981	1492.066763473506	435.588584592381	1112.561403796993	933.583502321864	574.225808095729	1104.609580435019	961.416287832820	302.447043350313	1152.760219081604	730.025114982024	554.211648012191	1070.582109199237	620.128116196435	615.400326449326	1155.562966244501	560.812754464536	544.958758282102	1141.227224579918	448.454352230346	563.517417310043	1168.415119729744	760.794858301314	327.774767070070	1089.515586256949	636.646261970736	271.664015944663	1183.690930821413	568.089183819406	333.630079308878	1190.986469135027	499.503889512979	343.626404025182	1170.154000523364	425.081156295285	337.018923061231	1089.092421560438	302.413688413563	290.649870330733	1153.530671325411	197.969742946343	362.082570450495	1054.189369758694	388.636717070226	561.710359701337	924.948207602041	367.088501210086	615.303926402543	897.895592289601	262.833760228706	561.938206511335	691.064922605792	226.719931318056	517.993324905000	849.305123895806	152.272583832726	574.097088747362	737.249784512567	162.912906275020	596.359724691659	898.041332838617	37.426465589304	605.759437720411	1038.966105384970	37.878141376552	412.063628214483	1109.949703485317	35.730800396919	328.111270501152	1192.080357182710	98.861774110002	352.168464816696	1320.156185365319	51.663118424243	320.362624386536	977.572863915732	1083.400224246741	177.557055812631	972.873004136028	825.158628658146	181.367815120364	1159.828630253298	1104.766273774212	736.868852329345	1405.670639795728	1105.056605715916	681.496311158754	
